<svg width="194" height="30" fill="none" xmlns="http://www.w3.org/2000/svg"><path d="M7.23 14.88L3.9 18.302v5.374H0V2.661h3.9V13.44L14.282 2.66h4.38l-8.82 9.397 9.36 11.618h-4.56L7.23 14.88zm20.008-7.415c2.36 0 4.16.57 5.4 1.711 1.26 1.12 1.89 2.822 1.89 5.104v9.396h-3.54v-1.951c-.46.7-1.12 1.24-1.98 1.62-.84.361-1.86.541-3.06.541s-2.25-.2-3.15-.6c-.9-.42-1.601-.991-2.101-1.712a4.482 4.482 0 01-.72-2.491c0-1.441.53-2.592 1.59-3.453 1.08-.88 2.77-1.32 5.07-1.32h4.141v-.24c0-1.121-.34-1.982-1.02-2.582-.66-.6-1.65-.901-2.97-.901-.9 0-1.79.14-2.67.42-.86.28-1.59.67-2.19 1.171l-1.471-2.732c.84-.64 1.85-1.13 3.03-1.47 1.18-.341 2.43-.511 3.75-.511zm-.51 13.69c.94 0 1.77-.21 2.49-.631a3.56 3.56 0 001.56-1.861V16.8h-3.87c-2.16 0-3.24.71-3.24 2.132 0 .68.27 1.22.81 1.62.54.401 1.29.601 2.25.601zm21.495-13.69c1.56 0 2.95.34 4.17 1.02a7.332 7.332 0 012.91 2.883c.7 1.24 1.05 2.671 1.05 4.293 0 1.62-.35 3.062-1.05 4.322a7.331 7.331 0 01-2.91 2.882c-1.22.68-2.61 1.021-4.17 1.021-2.16 0-3.87-.72-5.13-2.161V29.5h-3.751V7.645h3.57v2.101c.62-.76 1.38-1.33 2.28-1.71.92-.381 1.93-.571 3.03-.571zm-.42 13.209c1.38 0 2.51-.46 3.39-1.381.9-.92 1.35-2.131 1.35-3.632 0-1.502-.45-2.712-1.35-3.633-.88-.92-2.01-1.381-3.39-1.381-.9 0-1.71.21-2.43.63-.72.4-1.29.981-1.71 1.742-.42.76-.63 1.64-.63 2.642 0 1 .21 1.88.63 2.641.42.76.99 1.351 1.71 1.771.72.4 1.53.6 2.43.6zM59.91 7.645h3.75v16.031h-3.75V7.645zm1.89-2.642c-.68 0-1.25-.21-1.71-.63-.46-.44-.69-.981-.69-1.621s.23-1.171.69-1.592C60.55.72 61.12.5 61.8.5c.68 0 1.25.21 1.71.63.46.4.69.911.69 1.531 0 .66-.23 1.221-.69 1.682-.44.44-1.01.66-1.71.66zm15.664 2.462c1.56 0 2.95.34 4.17 1.02a7.332 7.332 0 012.911 2.883c.7 1.24 1.05 2.671 1.05 4.293 0 1.62-.35 3.062-1.05 4.322a7.331 7.331 0 01-2.91 2.882c-1.22.68-2.61 1.021-4.17 1.021-1.1 0-2.111-.19-3.031-.57-.9-.38-1.66-.95-2.28-1.711v2.071h-3.57V1.401h3.75v8.195a6.33 6.33 0 012.25-1.59c.88-.361 1.84-.541 2.88-.541zm-.42 13.209c1.38 0 2.51-.46 3.39-1.381.9-.92 1.35-2.131 1.35-3.632 0-1.502-.45-2.712-1.35-3.633-.88-.92-2.01-1.381-3.39-1.381-.9 0-1.71.21-2.43.63-.72.4-1.29.981-1.71 1.742-.42.76-.63 1.64-.63 2.642 0 1 .21 1.88.63 2.641.42.76.99 1.351 1.71 1.771.72.4 1.53.6 2.43.6zM95.068 7.465c2.36 0 4.16.57 5.4 1.711 1.26 1.12 1.89 2.822 1.89 5.104v9.396h-3.54v-1.951c-.46.7-1.12 1.24-1.98 1.62-.84.361-1.86.541-3.06.541s-2.25-.2-3.15-.6c-.901-.42-1.601-.991-2.101-1.712a4.481 4.481 0 01-.72-2.491c0-1.441.53-2.592 1.59-3.453 1.08-.88 2.77-1.32 5.07-1.32h4.141v-.24c0-1.121-.34-1.982-1.02-2.582-.66-.6-1.65-.901-2.97-.901-.9 0-1.79.14-2.67.42-.86.28-1.59.67-2.191 1.171l-1.47-2.732c.84-.64 1.85-1.13 3.03-1.47 1.18-.341 2.43-.511 3.75-.511zm-.51 13.69c.94 0 1.77-.21 2.49-.631a3.56 3.56 0 001.56-1.861V16.8h-3.87c-2.16 0-3.24.71-3.24 2.132 0 .68.27 1.22.81 1.62.54.401 1.29.601 2.25.601zm16.184-11.168c1.08-1.682 2.98-2.522 5.701-2.522v3.572a4.76 4.76 0 00-.87-.09c-1.461 0-2.601.43-3.421 1.291-.82.84-1.23 2.062-1.23 3.663v7.775h-3.75V7.645h3.57v2.342zm14.915-2.522c2.36 0 4.16.57 5.401 1.711 1.26 1.12 1.89 2.822 1.89 5.104v9.396h-3.541v-1.951c-.46.7-1.12 1.24-1.98 1.62-.84.361-1.86.541-3.06.541s-2.25-.2-3.151-.6c-.9-.42-1.6-.991-2.1-1.712a4.482 4.482 0 01-.72-2.491c0-1.441.53-2.592 1.59-3.453 1.08-.88 2.771-1.32 5.071-1.32h4.14v-.24c0-1.121-.34-1.982-1.02-2.582-.66-.6-1.65-.901-2.97-.901-.9 0-1.79.14-2.67.42-.86.28-1.591.67-2.191 1.171l-1.47-2.732c.84-.64 1.85-1.13 3.031-1.47 1.18-.341 2.43-.511 3.75-.511zm-.51 13.69c.94 0 1.77-.21 2.49-.631a3.56 3.56 0 001.56-1.861V16.8h-3.87c-2.16 0-3.24.71-3.24 2.132 0 .68.27 1.22.81 1.62.54.401 1.29.601 2.25.601z" fill="#4C4C4C"/><path d="M141.016 2.661h3.9v17.713h10.982v3.302h-14.882V2.661zm23.868 4.804c2.36 0 4.161.57 5.401 1.711 1.26 1.12 1.89 2.822 1.89 5.104v9.396h-3.541v-1.951c-.46.7-1.12 1.24-1.98 1.62-.84.361-1.86.541-3.06.541s-2.25-.2-3.15-.6c-.901-.42-1.601-.991-2.101-1.712a4.482 4.482 0 01-.72-2.491c0-1.441.53-2.592 1.59-3.453 1.081-.88 2.771-1.32 5.071-1.32h4.14v-.24c0-1.121-.34-1.982-1.02-2.582-.66-.6-1.65-.901-2.97-.901-.9 0-1.79.14-2.67.42-.86.28-1.59.67-2.191 1.171l-1.47-2.732c.84-.64 1.851-1.13 3.031-1.47 1.18-.341 2.43-.511 3.75-.511zm-.51 13.69c.94 0 1.77-.21 2.49-.631a3.56 3.56 0 001.56-1.861V16.8h-3.87c-2.16 0-3.24.71-3.24 2.132 0 .68.27 1.22.81 1.62.54.401 1.29.601 2.25.601zm21.495-13.69c1.56 0 2.95.34 4.171 1.02a7.331 7.331 0 012.91 2.883c.7 1.24 1.05 2.671 1.05 4.293 0 1.62-.35 3.062-1.05 4.322a7.33 7.33 0 01-2.91 2.882c-1.221.68-2.611 1.021-4.171 1.021-1.1 0-2.11-.19-3.03-.57-.9-.38-1.66-.95-2.281-1.711v2.071h-3.57V1.401h3.751v8.195c.64-.7 1.39-1.23 2.25-1.59.88-.361 1.84-.541 2.88-.541zm-.42 13.209c1.38 0 2.51-.46 3.39-1.381.901-.92 1.351-2.131 1.351-3.632 0-1.502-.45-2.712-1.351-3.633-.88-.92-2.01-1.381-3.39-1.381-.9 0-1.71.21-2.43.63-.72.4-1.29.981-1.71 1.742-.42.76-.631 1.64-.631 2.642 0 1 .211 1.88.631 2.641.42.76.99 1.351 1.71 1.771.72.4 1.53.6 2.43.6zM80.189 15.67a3.001 3.001 0 11-3-3.002c1.657 0 3 1.345 3 3.003z" fill="#737BE1"/></svg>